<?xml version="1.0" encoding="UTF-8" standalone="no"?>
<!DOCTYPE svg PUBLIC "-//W3C//DTD SVG 1.1//EN" "http://www.w3.org/Graphics/SVG/1.1/DTD/svg11.dtd">
<svg width="100%" height="100%" viewBox="0 0 644 113" version="1.1" xmlns="http://www.w3.org/2000/svg" xmlns:xlink="http://www.w3.org/1999/xlink" xml:space="preserve" xmlns:serif="http://www.serif.com/" style="fill-rule:evenodd;clip-rule:evenodd;stroke-linejoin:round;stroke-miterlimit:2;">
    <rect id="Artboard2" x="0" y="0" width="643.641" height="112.689" style="fill:none;"/>
    <clipPath id="_clip1">
        <rect id="Artboard21" serif:id="Artboard2" x="0" y="0" width="643.641" height="112.689"/>
    </clipPath>
    <g clip-path="url(#_clip1)">
        <g transform="matrix(3.35701,0,0,3.3348,-857.345,-1007.73)">
            <g transform="matrix(36.2643,0,0,36.2643,291.401,328.89)">
                <path d="M0.074,-0.7L0.074,-0L0.249,-0L0.249,-0.7L0.074,-0.7ZM0.487,-0.7L0.2,-0.367L0.495,-0L0.7,-0L0.401,-0.372L0.685,-0.7L0.487,-0.7Z" style="fill:rgb(43,43,44);fill-rule:nonzero;"/>
            </g>
            <g transform="matrix(36.2643,0,0,36.2643,314.937,328.89)">
                <path d="M0.213,-0.35C0.213,-0.391 0.221,-0.428 0.237,-0.46C0.254,-0.491 0.277,-0.516 0.307,-0.534C0.336,-0.552 0.371,-0.561 0.411,-0.561C0.452,-0.561 0.487,-0.552 0.516,-0.534C0.545,-0.516 0.568,-0.491 0.584,-0.46C0.6,-0.428 0.608,-0.391 0.608,-0.35C0.608,-0.309 0.6,-0.272 0.584,-0.241C0.567,-0.209 0.544,-0.184 0.515,-0.166C0.485,-0.148 0.45,-0.139 0.411,-0.139C0.371,-0.139 0.336,-0.148 0.307,-0.166C0.277,-0.184 0.254,-0.209 0.237,-0.241C0.221,-0.272 0.213,-0.309 0.213,-0.35ZM0.034,-0.35C0.034,-0.296 0.043,-0.246 0.062,-0.201C0.08,-0.156 0.106,-0.116 0.14,-0.083C0.173,-0.05 0.213,-0.024 0.259,-0.006C0.305,0.013 0.356,0.022 0.411,0.022C0.466,0.022 0.516,0.013 0.562,-0.006C0.608,-0.024 0.648,-0.05 0.682,-0.083C0.715,-0.116 0.741,-0.156 0.759,-0.201C0.778,-0.246 0.787,-0.296 0.787,-0.35C0.787,-0.404 0.778,-0.453 0.759,-0.498C0.74,-0.543 0.714,-0.581 0.68,-0.614C0.646,-0.647 0.606,-0.672 0.561,-0.69C0.515,-0.707 0.465,-0.716 0.411,-0.716C0.358,-0.716 0.308,-0.707 0.262,-0.69C0.216,-0.672 0.176,-0.647 0.142,-0.614C0.108,-0.581 0.082,-0.543 0.063,-0.498C0.043,-0.453 0.034,-0.404 0.034,-0.35Z" style="fill:rgb(43,43,44);fill-rule:nonzero;"/>
            </g>
            <g transform="matrix(36.2643,0,0,36.2643,344.71,328.89)">
                <path d="M0.557,-0.7L0.557,-0.306L0.074,-0.735L0.074,-0L0.236,-0L0.236,-0.394L0.72,0.035L0.72,-0.7L0.557,-0.7Z" style="fill:rgb(43,43,44);fill-rule:nonzero;"/>
            </g>
            <g transform="matrix(36.2643,0,0,36.2643,373.503,328.89)">
                <path d="M0.151,-0.246L0.033,-0.161C0.049,-0.128 0.071,-0.097 0.1,-0.069C0.129,-0.041 0.163,-0.019 0.202,-0.003C0.241,0.014 0.283,0.022 0.328,0.022C0.361,0.022 0.393,0.017 0.424,0.007C0.455,-0.002 0.482,-0.016 0.506,-0.035C0.531,-0.054 0.55,-0.077 0.565,-0.105C0.579,-0.132 0.586,-0.164 0.586,-0.199C0.586,-0.228 0.581,-0.254 0.572,-0.277C0.563,-0.3 0.55,-0.32 0.534,-0.337C0.517,-0.354 0.498,-0.369 0.477,-0.382C0.456,-0.394 0.433,-0.405 0.408,-0.414C0.375,-0.425 0.347,-0.436 0.325,-0.446C0.302,-0.456 0.284,-0.467 0.272,-0.479C0.259,-0.491 0.253,-0.505 0.253,-0.521C0.253,-0.536 0.259,-0.549 0.272,-0.56C0.285,-0.57 0.303,-0.575 0.327,-0.575C0.345,-0.575 0.362,-0.572 0.378,-0.565C0.393,-0.558 0.407,-0.548 0.421,-0.536C0.434,-0.523 0.445,-0.509 0.455,-0.492L0.584,-0.564C0.572,-0.588 0.555,-0.612 0.532,-0.635C0.509,-0.658 0.481,-0.678 0.447,-0.693C0.412,-0.708 0.372,-0.716 0.325,-0.716C0.28,-0.716 0.238,-0.708 0.202,-0.693C0.165,-0.677 0.135,-0.654 0.114,-0.624C0.092,-0.594 0.081,-0.558 0.081,-0.517C0.081,-0.482 0.087,-0.453 0.1,-0.429C0.113,-0.404 0.129,-0.384 0.148,-0.367C0.167,-0.349 0.188,-0.336 0.21,-0.325C0.231,-0.314 0.25,-0.306 0.267,-0.3C0.301,-0.287 0.328,-0.276 0.349,-0.266C0.37,-0.256 0.385,-0.246 0.394,-0.234C0.403,-0.224 0.408,-0.209 0.408,-0.191C0.408,-0.17 0.4,-0.153 0.384,-0.141C0.368,-0.128 0.348,-0.122 0.323,-0.122C0.3,-0.122 0.278,-0.127 0.257,-0.137C0.235,-0.147 0.216,-0.161 0.199,-0.18C0.181,-0.199 0.165,-0.221 0.151,-0.246Z" style="fill:rgb(43,43,44);fill-rule:nonzero;"/>
            </g>
            <g transform="matrix(36.2643,0,0,36.2643,396.169,328.89)">
                <path d="M0.004,-0.549L0.196,-0.549L0.196,-0L0.365,-0L0.365,-0.549L0.558,-0.549L0.558,-0.7L0.004,-0.7L0.004,-0.549Z" style="fill:rgb(43,43,44);fill-rule:nonzero;"/>
            </g>
            <g transform="matrix(36.2643,0,0,36.2643,416.513,328.89)">
                <rect x="0.074" y="-0.7" width="0.172" height="0.7" style="fill:rgb(43,43,44);fill-rule:nonzero;"/>
            </g>
            <g transform="matrix(36.2643,0,0,36.2643,428.117,328.89)">
                <path d="M0.074,-0.7L0.074,-0L0.524,-0L0.524,-0.145L0.243,-0.145L0.243,-0.7L0.074,-0.7Z" style="fill:rgb(43,43,44);fill-rule:nonzero;"/>
            </g>
        </g>
        <path d="M112.689,99.51L112.689,0L0,0L0,112.689L643.641,112.689L643.641,99.51L112.689,99.51Z" style="fill:rgb(0,139,41);fill-rule:nonzero;"/>
    </g>
</svg>
